<?xml version="1.0" encoding="utf-8"?>
<!-- Generator: Adobe Illustrator 23.0.1, SVG Export Plug-In . SVG Version: 6.00 Build 0)  -->
<svg version="1.1" id="Layer_1" xmlns="http://www.w3.org/2000/svg" xmlns:xlink="http://www.w3.org/1999/xlink" x="0px" y="0px"
	 viewBox="0 0 36 36" style="enable-background:new 0 0 36 36;" xml:space="preserve">
<style type="text/css">
	.st0{fill:#C0ABD2;}
</style>
<path class="st0" d="M17.9,1.7C9,1.7,1.7,9,1.7,17.9S9,34.1,17.9,34.1s16.2-7.3,16.2-16.2S26.9,1.7,17.9,1.7z M9.2,11.5h17.4
	c1,0,1.8,0.7,1.9,1.6l-10.6,4.5L7.3,13.1C7.4,12.2,8.2,11.5,9.2,11.5L9.2,11.5z M28.4,23.5c0,1-0.8,1.7-1.9,1.7H9.2
	c-1,0-1.9-0.8-1.9-1.7v-9.6l10.6,4.5l0,0l10.6-4.5C28.4,13.9,28.4,23.5,28.4,23.5z"/>
</svg>
