<?xml version="1.0" encoding="utf-8"?>
<!-- Generator: Adobe Illustrator 23.0.1, SVG Export Plug-In . SVG Version: 6.00 Build 0)  -->
<svg version="1.1" id="Layer_1" xmlns="http://www.w3.org/2000/svg" xmlns:xlink="http://www.w3.org/1999/xlink" x="0px" y="0px"
	 viewBox="0 0 36 36" style="enable-background:new 0 0 36 36;" xml:space="preserve">
<style type="text/css">
	.st0{fill:#C0ABD2;}
</style>
<path class="st0" d="M17.9,1.7C9,1.7,1.7,9,1.7,17.9S9,34.1,17.9,34.1s16.2-7.3,16.2-16.2S26.9,1.7,17.9,1.7z M21.6,17.6h-2.8v2.6
	c0,0.7,0,1,0.1,1.2c0.1,0.2,0.2,0.4,0.4,0.5c0.2,0.1,0.5,0.2,0.9,0.2c0.6,0,0.9-0.1,1.5-0.4v1.7c-0.5,0.2-0.9,0.4-1.3,0.5
	C19.9,24,19.5,24,19,24c-0.5,0-0.8-0.1-1.2-0.2c-0.4-0.1-0.7-0.3-1-0.6c-0.3-0.2-0.5-0.5-0.6-0.8c-0.1-0.3-0.2-0.7-0.2-1.2v-4h-1.5
	v-1.6c0.4-0.1,0.9-0.4,1.3-0.6c0.3-0.3,0.6-0.6,0.8-1c0.2-0.4,0.3-0.9,0.4-1.4h1.8v2.8h2.8L21.6,17.6L21.6,17.6z"/>
</svg>
