<?xml version="1.0" encoding="utf-8"?>
<!-- Generator: Adobe Illustrator 23.0.1, SVG Export Plug-In . SVG Version: 6.00 Build 0)  -->
<svg version="1.1" id="Layer_1" xmlns="http://www.w3.org/2000/svg" xmlns:xlink="http://www.w3.org/1999/xlink" x="0px" y="0px"
	 viewBox="0 0 36 36" style="enable-background:new 0 0 36 36;" xml:space="preserve">
<style type="text/css">
	.st0{fill:#C0ABD2;}
</style>
<path class="st0" d="M17.9,1.7C9,1.7,1.7,9,1.7,17.9S9,34.1,17.9,34.1c8.9,0,16.2-7.3,16.2-16.2S26.9,1.7,17.9,1.7z M24.2,14.8
	c0,0.1,0,0.3,0,0.4c0,4.4-3.4,9.6-9.6,9.6c-1.9,0-3.7-0.5-5.2-1.5c0.3,0,0.5,0,0.8,0c1.6,0,3-0.5,4.2-1.4c-1.5,0-2.7-1-3.1-2.3
	c0.2,0,0.4,0.1,0.6,0.1c0.3,0,0.6,0,0.9-0.1c-1.5-0.3-2.7-1.7-2.7-3.3v0c0.4,0.2,1,0.4,1.5,0.4c-0.9-0.6-1.5-1.6-1.5-2.8
	c0-0.6,0.2-1.2,0.5-1.7c1.7,2,4.1,3.4,6.9,3.5c-0.1-0.2-0.1-0.5-0.1-0.8c0-1.9,1.5-3.4,3.4-3.4c1,0,1.8,0.4,2.5,1.1
	c0.8-0.2,1.5-0.4,2.1-0.8c-0.3,0.8-0.8,1.4-1.5,1.9c0.7-0.1,1.3-0.3,1.9-0.5C25.4,13.7,24.9,14.3,24.2,14.8L24.2,14.8z"/>
</svg>
